<svg viewBox="0 0 80 80" xmlns="http://www.w3.org/2000/svg" width="80" height="80">
  <!-- Arm 0° -->
  <line x1="50" y1="40" x2="68" y2="40" stroke="#06B6D4" stroke-width="3.5" stroke-linecap="round" />
  <line x1="60" y1="40" x2="65.66" y2="34.34" stroke="#06B6D4" stroke-width="2.5" stroke-linecap="round" />
  <line x1="60" y1="40" x2="65.66" y2="45.66" stroke="#06B6D4" stroke-width="2.5" stroke-linecap="round" />
  <!-- Arm 60° -->
  <line x1="45" y1="48.66" x2="49" y2="55.59" stroke="#06B6D4" stroke-width="3.5" stroke-linecap="round" />
  <line x1="47" y1="52.12" x2="54.98" y2="53.16" stroke="#06B6D4" stroke-width="2.5" stroke-linecap="round" />
  <line x1="47" y1="52.12" x2="44.02" y2="59.26" stroke="#06B6D4" stroke-width="2.5" stroke-linecap="round" />
  <!-- Arm 120° -->
  <line x1="35" y1="48.66" x2="31" y2="55.59" stroke="#06B6D4" stroke-width="3.5" stroke-linecap="round" />
  <line x1="33" y1="52.12" x2="25.02" y2="53.16" stroke="#06B6D4" stroke-width="2.5" stroke-linecap="round" />
  <line x1="33" y1="52.12" x2="35.98" y2="59.26" stroke="#06B6D4" stroke-width="2.5" stroke-linecap="round" />
  <!-- Arm 180° -->
  <line x1="30" y1="40" x2="12" y2="40" stroke="#06B6D4" stroke-width="3.5" stroke-linecap="round" />
  <line x1="20" y1="40" x2="14.34" y2="34.34" stroke="#06B6D4" stroke-width="2.5" stroke-linecap="round" />
  <line x1="20" y1="40" x2="14.34" y2="45.66" stroke="#06B6D4" stroke-width="2.5" stroke-linecap="round" />
  <!-- Arm 240° -->
  <line x1="35" y1="31.34" x2="31" y2="24.41" stroke="#06B6D4" stroke-width="3.5" stroke-linecap="round" />
  <line x1="33" y1="27.88" x2="25.02" y2="26.84" stroke="#06B6D4" stroke-width="2.5" stroke-linecap="round" />
  <line x1="33" y1="27.88" x2="35.98" y2="20.74" stroke="#06B6D4" stroke-width="2.5" stroke-linecap="round" />
  <!-- Arm 300° -->
  <line x1="45" y1="31.34" x2="49" y2="24.41" stroke="#06B6D4" stroke-width="3.5" stroke-linecap="round" />
  <line x1="47" y1="27.88" x2="54.98" y2="26.84" stroke="#06B6D4" stroke-width="2.5" stroke-linecap="round" />
  <line x1="47" y1="27.88" x2="44.02" y2="20.74" stroke="#06B6D4" stroke-width="2.5" stroke-linecap="round" />
  <!-- Center -->
  <circle cx="40" cy="40" r="5" fill="#06B6D4" />
</svg>
